HIERARCHY
ROOT Hips
{
  OFFSET -69.4423 88.0299 51.6846
  CHANNELS 6 Xposition Yposition Zposition Zrotation Xrotation Yrotation
  JOINT Spine
  {
    OFFSET 12.0259 -0.162853 1.93176e-005
    CHANNELS 3 Zrotation Xrotation Yrotation
    JOINT Spine1
    {
      OFFSET 15.3169 -0.0121909 0
      CHANNELS 3 Zrotation Xrotation Yrotation
      JOINT Spine2
      {
        OFFSET 15.3176 -0.0121922 0
        CHANNELS 3 Zrotation Xrotation Yrotation
        JOINT Neck
        {
          OFFSET 19.9142 1.56236 0
          CHANNELS 3 Zrotation Xrotation Yrotation
          JOINT Head
          {
            OFFSET 6.92646 0 0
            CHANNELS 3 Zrotation Xrotation Yrotation
            End Site
            {
              OFFSET 20.7666 0 0
            }
          }
          JOINT LeftShoulder
          {
            OFFSET -4.94072 -1.14703 8.14416
            CHANNELS 3 Zrotation Xrotation Yrotation
            JOINT LeftArm
            {
              OFFSET 14.108 0 -2.74767e-005
              CHANNELS 3 Zrotation Xrotation Yrotation
              JOINT LeftForeArm
              {
                OFFSET 28.5802 -0.0783412 -0.0284884
                CHANNELS 3 Zrotation Xrotation Yrotation
                JOINT LeftHand
                {
                  OFFSET 27.092 0 0
                  CHANNELS 3 Zrotation Xrotation Yrotation
                  End Site
                  {
                    OFFSET 9.55928 -0.186424 0.145352
                  }
                }
              }
            }
          }
          JOINT RightShoulder
          {
            OFFSET -7.15748 -1.33027 -6.24935
            CHANNELS 3 Zrotation Xrotation Yrotation
            JOINT RightArm
            {
              OFFSET 14.108 0 1.82997e-005
              CHANNELS 3 Zrotation Xrotation Yrotation
              JOINT RightForeArm
              {
                OFFSET 28.5802 -0.0707221 2.30684e-005
                CHANNELS 3 Zrotation Xrotation Yrotation
                JOINT RightHand
                {
                  OFFSET 27.092 0 -1.30073e-005
                  CHANNELS 3 Zrotation Xrotation Yrotation
                  End Site
                  {
                    OFFSET 9.55929 -0.186417 -0.145354
                  }
                }
              }
            }
          }
        }
      }
    }
  }
  JOINT LeftUpLeg
  {
    OFFSET 0.00499725 -0.534999 8.837
    CHANNELS 3 Zrotation Xrotation Yrotation
    JOINT LeftLeg
    {
      OFFSET 39.9035 -0.00124594 0.000252775
      CHANNELS 3 Zrotation Xrotation Yrotation
      JOINT LeftFoot
      {
        OFFSET 39.6689 0 0
        CHANNELS 3 Zrotation Xrotation Yrotation
        JOINT LeftToe
        {
          OFFSET 10.1624 13.6296 0
          CHANNELS 3 Zrotation Xrotation Yrotation
          End Site
          {
            OFFSET 8.38147 0 0
          }
        }
      }
    }
  }
  JOINT RightUpLeg
  {
    OFFSET 0.00499725 -0.535 -8.837
    CHANNELS 3 Zrotation Xrotation Yrotation
    JOINT RightLeg
    {
      OFFSET 39.9036 -0.000268477 0.000106433
      CHANNELS 3 Zrotation Xrotation Yrotation
      JOINT RightFoot
      {
        OFFSET 39.6689 1.17892e-005 0
        CHANNELS 3 Zrotation Xrotation Yrotation
        JOINT RightToe
        {
          OFFSET 10.1624 13.6296 0
          CHANNELS 3 Zrotation Xrotation Yrotation
          End Site
          {
            OFFSET 8.38147 0 0
          }
        }
      }
    }
  }
}
MOTION
Frames:	14
Frame Time:	0.0333333
19.9961 88.4376 -57.6 -86.1194 -69.4758 -177.278 1.3756 0.861605 0.346056 2.74642 1.72998 0.671707 2.74642 1.72999 0.6717 -15.0416 -5.36173 -14.136 52.8194 -1.47156 16.84 -168.05 -7.79035 -96.3868 -22.2432 4.55931 85.8169 -25.2492 2.95244 -16.1866 5.60215 -81.8365 7.65161 -167.861 -9.91176 72.4055 -6.16732 -2.03856 -79.6085 -27.5006 -4.06844 16.7681 10.1737 87.3071 -10.0581 -13.0948 -2.33871 -178.268 -33.1639 0.93517 -0.71111 8.31184 3.07696 0.367351 90 2.38542e-015 1.27222e-014 -11.4426 -1.37971 179.867 -31.7104 -0.544858 -0.0748978 5.51274 0.601109 -0.552115 90 4.6118e-014 9.54166e-015 
21.1755 88.1588 -58.3451 -87.0747 -68.7562 -178.123 1.35624 0.835197 0.390258 2.70722 1.67977 0.760919 2.70721 1.67977 0.760901 -15.6919 -5.22767 -13.9323 53.4439 -1.65115 16.3497 -167.353 -7.74664 -96.1206 -22.9063 4.44614 85.8389 -25.1308 2.92039 -16.1221 6.40242 -82.3775 8.41113 -167.155 -9.85266 72.6601 -5.94703 -1.86769 -79.3012 -27.478 -4.06435 16.751 10.0675 87.2864 -9.9512 -14.3285 2.05163 -179.946 -30.406 0.919221 -0.805187 7.82246 4.57836 0.321246 90 8.74653e-015 6.36111e-015 -11.5624 -1.52137 -179.701 -32.8428 -0.548499 -0.111708 6.72796 0.190891 -0.676229 90 1.90833e-014 1.27222e-014 
22.2919 88.0143 -58.9861 -87.4081 -68.9673 -178.778 1.32072 0.659908 0.514576 2.63572 1.33196 1.01405 2.63571 1.33197 1.01404 -15.3687 -5.22744 -13.9424 53.0179 -1.51325 16.4876 -167.681 -7.70063 -96.1941 -23.4548 4.68851 85.9404 -25.1738 2.92378 -16.1356 7.08461 -82.9192 9.12051 -167.477 -9.79367 72.5915 -5.48457 -1.99713 -79.1951 -27.354 -4.03239 16.6859 8.36883 86.7583 -8.25211 -14.9992 3.51071 178.788 -28.1578 0.921033 -0.883823 6.84026 5.36991 0.32951 90 -1.19271e-015 3.18055e-015 -11.1358 -2.1028 -178.909 -33.1895 -0.557814 -0.134966 7.65652 0.222473 -0.751449 90 1.03368e-014 1.59028e-014 
23.4539 87.9383 -59.7971 -86.569 -69.6953 -178.688 1.33161 0.449451 0.709742 2.65768 0.915776 1.40907 2.65767 0.915749 1.40906 -15.088 -5.39747 -13.7993 53.1924 -1.60326 16.5926 -167.961 -7.77216 -96.0684 -24.2634 4.79339 85.9376 -24.9582 2.87439 -16.0128 8.19592 -83.6411 10.2666 -167.772 -9.84601 72.7073 -5.90681 -2.95744 -79.1343 -27.787 -4.14875 16.9159 10.6586 87.4924 -10.5579 -15.1692 2.24326 178.355 -27.4917 0.922257 -0.87178 4.6936 7.88565 0.420634 90 -1.59028e-015 -1.90833e-014 -9.76779 -2.91508 -177.725 -32.8318 -0.574225 -0.152342 7.96798 0.23447 -0.774407 90 -2.38542e-014 -2.54444e-014 
24.6092 87.8178 -60.4019 -87.3331 -70.2851 -179.935 1.18834 0.279173 0.847198 2.37249 0.576311 1.68863 2.37247 0.576305 1.68861 -15.0615 -5.66238 -13.8086 54.4828 -1.42932 16.9811 -168.046 -8.0171 -96.0579 -24.6449 5.04466 85.927 -24.9553 2.85967 -15.9932 7.57251 -83.1355 9.57129 -167.868 -10.0702 72.7092 -5.13173 -3.52364 -79.3464 -27.5563 -4.08829 16.7969 6.88065 86.1979 -6.75679 -15.041 -0.80141 178.735 -28.3132 0.945326 -0.869134 3.7623 5.80672 0.431536 90 2.8625e-014 -6.36111e-015 -9.26674 -3.54055 -176.657 -32.8523 -0.581174 -0.16121 7.75624 0.329903 -0.752896 90 2.94201e-014 3.18055e-015 
25.846 87.6384 -60.9052 -87.9198 -70.6338 178.961 1.04635 0.164836 0.940845 2.08988 0.347344 1.87868 2.08988 0.347345 1.87866 -14.6124 -5.99004 -13.653 55.0594 -1.33308 17.4238 -168.533 -8.19748 -95.9356 -24.6784 5.31279 85.6042 -24.7681 2.82108 -15.8733 7.61286 -83.1585 9.64519 -168.377 -10.26 72.8107 -4.31434 -4.24464 -79.854 -27.3517 -4.03541 16.6977 5.15916 85.0577 -5.00569 -15.3531 -0.306388 -179.574 -29.333 0.92288 -0.815091 4.74473 8.38341 0.453824 90 -1.74931e-014 -9.54166e-015 -8.90435 -4.31263 -175.605 -33.2749 -0.582251 -0.179636 8.84419 0.334114 -0.824557 90 -1.43125e-014 -1.27222e-014 
26.8996 87.4515 -61.4372 -88.6295 -70.7743 178.521 0.989806 0.114793 0.786075 1.97795 0.243643 1.57023 1.97795 0.24364 1.57023 -15.0234 -6.47151 -13.6011 55.9369 -1.66466 18.3704 -168.216 -8.75468 -95.7348 -24.3164 5.6683 84.7916 -24.7187 2.8115 -15.8084 8.10086 -83.4462 10.1366 -168.077 -10.8091 73.0045 -2.44712 -4.48295 -81.2485 -27.309 -4.02727 16.6753 4.43991 84.2426 -4.26883 -15.3341 -0.487549 -179.094 -29.9178 0.918434 -0.776741 5.5149 9.46341 0.387878 90 7.95139e-015 -1.90833e-014 -8.99934 -5.15618 -175.713 -34.4016 -0.566521 -0.199665 10.4406 0.0141435 -0.927303 90 2.38542e-015 -0 
27.6775 87.3317 -61.8367 -89.7999 -70.2823 178.128 0.996029 0.160616 0.5066 1.99063 0.330461 1.0105 1.99063 0.330449 1.01049 -14.9201 -6.72736 -13.6225 54.9172 -1.70143 19.5311 -168.363 -9.02357 -95.7241 -23.4164 5.82285 83.6779 -24.8892 2.85155 -15.8634 8.51459 -83.8293 10.5763 -168.245 -11.0932 73.0285 -0.807294 -4.39613 -82.9135 -27.4097 -4.05506 16.7296 4.40542 84.1417 -4.24997 -14.9283 -0.672847 -179.566 -29.1222 0.92862 -0.802354 5.65046 8.599 0.373245 90 3.97569e-015 6.36111e-015 -10.1862 -6.07258 -176.734 -36.7586 -0.514255 -0.240109 12.3865 -1.59951 -0.965924 90 -9.54166e-015 -9.54166e-015 
28.5426 87.3771 -62.2115 -89.8359 -69.3404 178.64 1.01106 0.249484 0.280038 2.02093 0.504256 0.555807 2.02091 0.504243 0.555794 -14.8304 -6.7406 -13.5838 54.5408 -1.59655 19.8273 -168.438 -9.0123 -95.6882 -22.1795 6.08192 82.6188 -24.7187 2.82448 -15.7396 9.56186 -84.3519 11.6096 -168.351 -11.1012 73.0504 -0.744157 -4.64227 -84.3432 -27.0205 -3.95396 16.5527 5.68843 85.2536 -5.55109 -13.9642 -0.825156 -179.731 -28.2188 0.943811 -0.82449 5.64883 7.66573 0.372623 90 -3.18055e-015 9.54166e-015 -11.3801 -5.83878 -177.487 -39.2697 -0.462579 -0.26942 13.7955 -2.56115 -0.940072 90 -1.74931e-014 -1.90833e-014 
29.4519 87.4531 -62.6924 -89.6565 -68.4407 179.239 1.05695 0.320439 0.123068 2.11332 0.643619 0.240354 2.11332 0.643592 0.240361 -14.5876 -6.68561 -13.9041 54.0951 -1.43539 20.08 -168.687 -8.97714 -96.0013 -20.4407 5.86809 81.705 -24.029 2.70813 -15.351 9.7305 -84.0635 11.7906 -168.649 -11.0748 72.664 -0.793007 -4.9112 -85.0507 -26.2245 -3.7278 16.1146 3.72654 83.2077 -3.54296 -12.8206 -0.418188 -179.618 -27.5352 0.950704 -0.839531 6.18246 6.73724 0.348015 90 7.15625e-015 6.36111e-015 -12.3636 -5.66712 -178.536 -41.0604 -0.436152 -0.25639 14.3942 -1.68946 -1.03009 90 9.54166e-015 3.18055e-015 
30.3594 87.5466 -63.0221 -89.7323 -67.8796 179.142 1.12123 0.33159 0.102076 2.24199 0.665539 0.190899 2.24199 0.665526 0.190898 -14.8755 -6.4874 -14.05 54.3093 -1.47046 19.6619 -168.351 -8.84446 -96.0913 -17.9674 5.20225 81.0151 -23.477 2.62462 -15.052 8.06278 -82.8176 10.1229 -168.365 -10.9625 72.5185 -2.06001 -5.23002 -85.5874 -26.0271 -3.66459 16.0062 3.02119 81.8827 -2.82064 -12.1101 -0.456095 -179.144 -27.1735 0.953935 -0.850388 6.36924 6.1496 0.355684 90 9.54166e-015 9.54166e-015 -13.4701 -5.74538 -179.514 -41.6714 -0.443979 -0.183202 13.7487 2.13911 -1.30521 90 8.74653e-015 9.54166e-015 
31.2196 87.629 -63.4633 -89.2942 -67.43 179.542 1.15763 0.332131 0.106593 2.3145 0.667039 0.229401 2.3145 0.667037 0.22939 -14.9096 -6.26674 -13.7491 54.5809 -1.86611 18.4297 -168.198 -8.51477 -95.7953 -16.3982 4.88412 80.6629 -22.8713 2.52836 -14.7165 8.12273 -82.6909 10.3391 -168.251 -10.635 72.7726 -3.12476 -5.84971 -85.7519 -26.0051 -3.65006 15.9916 2.6145 80.8315 -2.39911 -11.2193 -0.833687 -178.99 -26.84 0.966075 -0.870252 6.31084 4.63913 0.364077 90 2.3059e-014 -6.36111e-015 -14.5891 -5.54087 178.923 -41.6859 -0.442598 -0.113735 12.2849 5.1833 -1.32034 90 1.59028e-015 6.36111e-015 
32.126 87.6642 -63.9981 -88.245 -66.6763 -179.137 1.29367 0.372171 0.107264 2.58672 0.747109 0.206258 2.58672 0.747134 0.206245 -15.0829 -5.98634 -13.8279 54.5421 -1.70529 17.9504 -167.957 -8.28121 -95.8619 -15.4988 4.52908 80.6534 -22.3597 2.44222 -14.4465 8.2929 -82.8044 10.5452 -168.032 -10.3953 72.6552 -3.09435 -5.92718 -85.5794 -26.121 -3.68066 16.0509 2.57808 80.7664 -2.36547 -9.88985 -1.40865 -179.21 -26.3963 0.985052 -0.880483 5.89987 3.35266 0.36207 90 3.97569e-015 9.54166e-015 -15.6923 -5.12956 176.618 -41.3256 -0.419563 -0.0428186 10.6951 7.62472 -1.14826 90 6.36111e-015 3.18055e-015 
33.178 87.6791 -64.4515 -87.3219 -65.9396 -178.195 1.38127 0.412559 0.179052 2.76138 0.829793 0.348284 2.76137 0.829805 0.348268 -14.972 -5.79739 -13.5899 54.4139 -1.82809 17.1575 -167.992 -8.00704 -95.6828 -15.769 4.876 81.023 -22.1746 2.4063 -14.3424 8.85995 -82.599 11.0312 -168.054 -10.0799 72.8219 -2.65406 -6.02313 -85.0848 -26.3202 -3.73642 16.1565 2.83949 81.6554 -2.63597 -8.53164 -1.96674 -179.018 -25.9666 0.998778 -0.900086 5.86101 1.72262 0.353553 90 7.15625e-015 9.54166e-015 -16.6026 -3.98816 174.44 -40.4603 -0.389676 0.0128907 9.1606 8.18085 -0.849281 90 1.74931e-014 -3.18055e-015 
